HIERARCHY
ROOT Hips
{
	OFFSET 0.00000 0.00000 0.00000
	CHANNELS 6 Xposition Yposition Zposition Zrotation Yrotation Xrotation 
	JOINT LHipJoint
	{
		OFFSET 0 0 0
		CHANNELS 3 Zrotation Yrotation Xrotation
		JOINT LeftUpLeg
		{
			OFFSET 1.53139 -1.83434 0.76626
			CHANNELS 3 Zrotation Yrotation Xrotation
			JOINT LeftLeg
			{
				OFFSET 2.56112 -7.03663 0.00000
				CHANNELS 3 Zrotation Yrotation Xrotation
				JOINT LeftFoot
				{
					OFFSET 2.59983 -7.14299 0.00000
					CHANNELS 3 Zrotation Yrotation Xrotation
					JOINT LeftToeBase
					{
						OFFSET 0.13742 -0.37757 2.00054
						CHANNELS 3 Zrotation Yrotation Xrotation
						End Site
						{
							OFFSET 0.00000 -0.00000 1.02897
						}
					}
				}
			}
		}
	}
	JOINT RHipJoint
	{
		OFFSET 0 0 0
		CHANNELS 3 Zrotation Yrotation Xrotation
		JOINT RightUpLeg
		{
			OFFSET -1.40122 -1.83435 0.76627
			CHANNELS 3 Zrotation Yrotation Xrotation
			JOINT RightLeg
			{
				OFFSET -2.54052 -6.98003 0.00000
				CHANNELS 3 Zrotation Yrotation Xrotation
				JOINT RightFoot
				{
					OFFSET -2.63179 -7.23079 0.00000
					CHANNELS 3 Zrotation Yrotation Xrotation
					JOINT RightToeBase
					{
						OFFSET -0.24131 -0.66299 2.03908
						CHANNELS 3 Zrotation Yrotation Xrotation
						End Site
						{
							OFFSET -0.00000 -0.00000 1.07391
						}
					}
				}
			}
		}
	}
	JOINT LowerBack
	{
		OFFSET 0 0 0
		CHANNELS 3 Zrotation Yrotation Xrotation
		JOINT Spine
		{
			OFFSET 0.01174 2.10302 -0.29778
			CHANNELS 3 Zrotation Yrotation Xrotation
			JOINT Spine1
			{
				OFFSET 0.00772 2.13227 -0.01247
				CHANNELS 3 Zrotation Yrotation Xrotation
				JOINT Neck
				{
					OFFSET 0 0 0
					CHANNELS 3 Zrotation Yrotation Xrotation
					JOINT Neck1
					{
						OFFSET -0.09219 1.60848 0.31481
						CHANNELS 3 Zrotation Yrotation Xrotation
						JOINT Head
						{
							OFFSET 0.13974 1.65456 -0.31134
							CHANNELS 3 Zrotation Yrotation Xrotation
							End Site
							{
								OFFSET 0.04742 1.69515 -0.14578
							}
						}
					}
				}
				JOINT LeftShoulder
				{
					OFFSET 0 0 0
					CHANNELS 3 Zrotation Yrotation Xrotation
					JOINT LeftArm
					{
						OFFSET 3.24909 1.02882 -0.23993
						CHANNELS 3 Zrotation Yrotation Xrotation
						JOINT LeftForeArm
						{
							OFFSET 5.32955 -0.00000 -0.00000
							CHANNELS 3 Zrotation Yrotation Xrotation
							JOINT LeftHand
							{
								OFFSET 3.69232 -0.00000 -0.00000
								CHANNELS 3 Zrotation Yrotation Xrotation
								JOINT LeftFingerBase
								{
									OFFSET 0 0 0
									CHANNELS 3 Zrotation Yrotation Xrotation
									JOINT LeftHandIndex1
									{
										OFFSET 0.53660 -0.00000 -0.00000
										CHANNELS 3 Zrotation Yrotation Xrotation
										End Site
										{
											OFFSET 0.43262 -0.00000 -0.00000
										}
									}
								}
								JOINT LThumb
								{
									OFFSET 0 0 0
									CHANNELS 3 Zrotation Yrotation Xrotation
									End Site
									{
										OFFSET 0.43922 -0.00000 0.43922
									}
								}
							}
						}
					}
				}
				JOINT RightShoulder
				{
					OFFSET 0 0 0
					CHANNELS 3 Zrotation Yrotation Xrotation
					JOINT RightArm
					{
						OFFSET -3.21387 0.93002 -0.34594
						CHANNELS 3 Zrotation Yrotation Xrotation
						JOINT RightForeArm
						{
							OFFSET -5.23431 -0.00000 0.00000
							CHANNELS 3 Zrotation Yrotation Xrotation
							JOINT RightHand
							{
								OFFSET -3.55301 -0.00000 -0.00000
								CHANNELS 3 Zrotation Yrotation Xrotation
								JOINT RightFingerBase
								{
									OFFSET 0 0 0
									CHANNELS 3 Zrotation Yrotation Xrotation
									JOINT RightHandIndex1
									{
										OFFSET -0.77252 -0.00000 -0.00000
										CHANNELS 3 Zrotation Yrotation Xrotation
										End Site
										{
											OFFSET -0.62283 -0.00000 -0.00000
										}
									}
								}
								JOINT RThumb
								{
									OFFSET 0 0 0
									CHANNELS 3 Zrotation Yrotation Xrotation
									End Site
									{
										OFFSET -0.63234 -0.00000 0.63234
									}
								}
							}
						}
					}
				}
			}
		}
	}
}
MOTION
Frames: 13
Frame Time: .0083333
8.5326 17.7098 8.3750 177.5370 -39.0498 -176.6460 0.0000 0.0000 0.0000 -19.6721 -4.8376 -4.5049 1.8564 8.5602 24.4291 0.8186 -1.7500 -16.5922 0.4936 -4.5043 -12.5001 0.0000 0.0000 0.0000 21.3559 -2.7711 -14.3862 -5.3312 -13.7473 42.2345 -0.9016 18.2560 -19.8921 -0.4045 4.0833 -11.3112 -3.4347 1.4893 11.0330 0.5014 1.5288 0.3538 2.2203 0.8331 -5.9299 -10.8306 -2.1412 -21.9739 7.0854 -2.2597 30.2885 4.2636 -1.5472 14.2671 0.0000 0.0000 0.0000 -81.5450 -0.2026 14.1739 22.1072 -33.0980 -6.6443 -0.0000 -0.0000 0.4488 27.4992 23.3643 11.6641 -7.1250 0.0000 -0.0000 -1.8115 55.9378 -0.4862 0.0000 0.0000 0.0000 90.2243 -3.3118 5.7433 -18.6896 29.0311 -4.8793 0.0000 0.0000 8.9150 -13.2576 9.0093 -2.1130 7.1250 -0.0000 -0.0000 9.7999 -20.7862 5.7678
8.5013 17.7067 8.3954 177.4520 -38.5178 -176.5190 0.0000 0.0000 0.0000 -19.9194 -4.8008 -4.5326 1.8692 8.5881 24.5152 0.8369 -1.6254 -16.8124 0.3971 -4.0460 -11.2062 0.0000 0.0000 0.0000 21.9655 -3.2248 -14.5366 -5.2347 -13.6433 41.8271 -0.8485 16.8867 -18.9525 -0.1075 2.1139 -5.8206 -3.5722 1.5103 10.9483 0.4683 1.5425 0.2699 2.2613 0.8465 -5.9749 -11.0601 -2.1563 -22.1164 7.2126 -2.2387 30.4623 4.3680 -1.5559 14.3775 -0.0000 0.0000 0.0000 -81.5779 -0.0981 13.8561 22.0129 -32.9916 -6.5929 -0.0000 -0.0000 0.5682 27.4552 23.2812 11.6048 -7.1250 0.0000 -0.0000 -1.8347 55.8388 -0.4880 -0.0000 0.0000 0.0000 90.1495 -3.3490 6.2169 -18.4801 28.7676 -4.7781 0.0000 0.0000 8.6059 -14.3411 9.9226 -2.5225 7.1250 -0.0000 -0.0000 8.9983 -19.8071 5.4843
8.4664 17.7037 8.4126 177.4190 -38.0076 -176.4620 0.0000 0.0000 0.0000 -20.1012 -4.4763 -4.6401 1.8847 8.6216 24.6185 0.8490 -1.5894 -16.9457 0.4220 -4.1696 -11.5544 0.0000 0.0000 0.0000 22.5410 -3.5325 -14.5054 -5.1173 -13.5147 41.3270 -0.8743 14.3421 -18.2081 -0.0407 -1.3016 3.5789 -3.5750 1.5545 10.8208 0.3771 1.6022 0.1893 2.1587 0.8772 -5.9897 -11.0792 -2.1689 -22.0749 7.2374 -2.2822 30.5442 4.3757 -1.5817 14.4105 0.0000 -0.0000 0.0000 -81.4904 0.0288 13.7668 21.9115 -32.8768 -6.5377 -0.0000 -0.0000 0.8115 27.2253 23.1032 11.4135 -7.1250 0.0000 -0.0000 -2.0308 55.5977 -0.5283 0.0000 -0.0000 0.0000 90.1832 -3.3817 6.5151 -18.2198 28.4377 -4.6534 0.0000 0.0000 8.3119 -14.7959 10.3769 -2.7239 7.1250 -0.0000 -0.0000 8.6658 -19.3191 5.3723
8.4317 17.7013 8.4310 177.3150 -37.5253 -176.3730 0.0000 0.0000 0.0000 -20.3311 -4.1413 -4.8091 1.9098 8.6757 24.7860 0.8630 -1.6218 -17.0807 0.4310 -4.2130 -11.6766 0.0000 0.0000 0.0000 22.9725 -3.6594 -14.3681 -4.9792 -13.3603 40.7327 -1.0366 11.0529 -18.6300 -0.2218 -3.0317 8.3669 -3.5243 1.6035 10.7243 0.2053 1.6675 0.1209 1.9400 0.9070 -6.0051 -10.9206 -2.1713 -21.9679 7.1983 -2.3590 30.5461 4.3157 -1.6064 14.3938 0.0000 0.0000 0.0000 -81.2316 0.1332 13.9893 21.8094 -32.7609 -6.4824 -0.0000 -0.0000 0.7857 27.5061 23.3054 11.6405 -7.1250 0.0000 -0.0000 -1.7866 55.8757 -0.4768 0.0000 0.0000 0.0000 90.3659 -3.3910 6.6587 -18.0740 28.2519 -4.5842 0.0000 0.0000 7.9437 -14.7411 10.2607 -2.6833 7.1250 -0.0000 -0.0000 8.7069 -19.4408 5.3745
8.3980 17.6918 8.4518 177.4270 -36.9680 -176.4300 0.0000 0.0000 0.0000 -20.3813 -3.8851 -4.9829 1.9504 8.7621 25.0539 0.9022 -1.8519 -17.4208 0.2708 -3.3475 -9.2477 0.0000 0.0000 0.0000 23.4833 -3.6048 -14.1186 -4.8252 -13.1841 40.0618 -1.2714 7.7763 -20.1589 -0.1329 -2.3500 6.4738 -3.3327 1.6525 10.6887 0.1430 1.7551 0.0410 1.7521 0.9464 -6.0667 -10.8458 -2.1740 -21.9355 7.0646 -2.3643 30.6130 4.2469 -1.6250 14.4144 -0.0000 0.0000 0.0000 -81.1014 0.3584 14.2282 21.8121 -32.7641 -6.4839 -0.0000 -0.0000 0.5883 27.4200 23.6234 11.7441 -7.1250 0.0000 -0.0000 -1.9758 56.1998 -0.5429 -0.0000 0.0000 0.0000 90.4130 -3.3856 6.7866 -17.9230 28.0585 -4.5130 0.0000 0.0000 7.5727 -14.6557 10.0921 -2.6238 7.1250 -0.0000 -0.0000 8.7711 -19.6173 5.3801
8.3634 17.6771 8.4730 177.4480 -36.4127 -176.4130 0.0000 0.0000 0.0000 -20.4992 -3.6413 -5.1907 2.0003 8.8668 25.3795 0.9396 -2.1631 -17.7180 0.1435 -2.4417 -6.7281 0.0000 0.0000 0.0000 23.7829 -3.4447 -13.8442 -4.6696 -13.0018 39.3750 -1.4715 5.1980 -21.8267 -0.0271 -1.0636 2.9237 -3.2041 1.6741 10.5883 0.0847 1.8011 -0.0070 1.6127 0.9654 -6.0573 -10.9093 -2.1802 -21.9012 7.0151 -2.3354 30.5791 4.2405 -1.6273 14.3892 -0.0000 0.0000 0.0000 -81.0002 0.5953 14.4480 21.8289 -32.7831 -6.4930 -0.0000 -0.0000 0.3886 27.3073 23.5163 11.6406 -7.1250 0.0000 -0.0000 -2.0658 56.0601 -0.5606 -0.0000 0.0000 0.0000 90.4711 -3.4134 6.8066 -17.9162 28.0497 -4.5098 0.0000 0.0000 7.3539 -14.4513 9.8819 -2.5324 7.1250 -0.0000 -0.0000 8.9213 -19.8426 5.4290
8.3285 17.6614 8.4915 177.2210 -35.9509 -176.3270 0.0000 0.0000 0.0000 -20.8027 -3.2641 -5.3963 2.0619 8.9938 25.7759 0.9665 -2.5048 -17.9064 0.1104 -2.1420 -5.8984 0.0000 0.0000 0.0000 23.7333 -3.3350 -13.4518 -4.5209 -12.8230 38.7095 -1.5853 4.0555 -22.8391 -0.0266 -1.0529 2.8942 -3.2110 1.6745 10.5111 -0.0317 1.7952 0.0231 1.4977 0.9590 -5.9780 -11.0439 -2.2087 -22.0265 7.0391 -2.3196 30.6251 4.2797 -1.6334 14.4382 -0.0000 0.0000 0.0000 -80.9192 0.6151 14.5425 21.7167 -32.6554 -6.4323 -0.0000 -0.0000 0.6068 26.6719 23.0186 11.1129 -7.1250 0.0000 -0.0000 -2.6008 55.3896 -0.6636 -0.0000 0.0000 0.0000 90.6790 -3.5863 6.5018 -18.5045 28.7984 -4.7898 0.0000 0.0000 6.4682 -12.6453 8.7726 -1.9598 7.1250 -0.0000 -0.0000 10.2476 -21.0514 5.9773
8.2901 17.6497 8.5136 177.1490 -35.4570 -176.3850 0.0000 0.0000 0.0000 -20.9887 -2.8006 -5.6170 2.1317 9.1352 26.2193 1.0019 -2.8628 -18.1744 0.1177 -2.2116 -6.0907 0.0000 0.0000 0.0000 23.6671 -3.1462 -12.9220 -4.3873 -12.6586 38.1037 -1.6195 4.0973 -23.0885 -0.1020 -2.0595 5.6701 -2.9743 1.6857 10.5296 -0.1357 1.8308 0.0504 1.2501 0.9666 -5.9500 -11.2209 -2.2414 -22.2041 7.1540 -2.3256 30.7410 4.3638 -1.6444 14.5341 0.0000 0.0000 0.0000 -80.8743 0.5517 14.5659 21.5415 -32.4550 -6.3380 -0.0000 -0.0000 0.9959 25.7014 22.3272 10.3617 -7.1250 0.0000 -0.0000 -3.4233 54.4497 -0.7955 0.0000 0.0000 0.0000 90.8109 -3.7596 6.4388 -18.7894 29.1562 -4.9278 0.0000 0.0000 6.2779 -12.2506 8.5515 -1.8493 7.1250 -0.0000 -0.0000 10.5408 -21.2898 6.0962
8.2540 17.6378 8.5435 177.2810 -34.8623 -176.5420 0.0000 0.0000 0.0000 -21.0293 -2.5609 -5.8317 2.2158 9.3017 26.7438 1.0453 -3.0219 -18.5496 0.1202 -2.2347 -6.1548 0.0000 0.0000 0.0000 23.6722 -2.7192 -12.3081 -4.2656 -12.5057 37.5451 -1.6432 4.2723 -23.2369 -0.1380 -2.3945 6.5972 -2.5483 1.7252 10.6195 -0.2200 1.9275 0.0146 0.9038 1.0014 -6.0249 -11.2628 -2.2305 -22.1483 7.1808 -2.3083 30.6901 4.3828 -1.6380 14.4978 -0.0000 0.0000 0.0000 -80.8358 0.6296 14.5977 21.4447 -32.3438 -6.2862 -0.0000 -0.0000 1.3413 25.0794 21.8340 9.8738 -7.1250 0.0000 -0.0000 -3.9262 53.8003 -0.8505 -0.0000 0.0000 0.0000 90.8517 -3.7880 6.5643 -18.7002 29.0444 -4.8844 0.0000 0.0000 6.1930 -12.4943 8.6118 -1.9004 7.1250 -0.0000 -0.0000 10.3633 -21.2195 6.0069
8.2196 17.6183 8.5783 177.3490 -34.2911 -176.6730 0.0000 0.0000 0.0000 -21.1264 -2.3820 -6.0780 2.3139 9.4914 27.3448 1.0701 -3.0247 -18.7760 0.1399 -2.4109 -6.6426 0.0000 0.0000 0.0000 23.5309 -2.2521 -11.6934 -4.1548 -12.3636 37.0306 -1.6981 4.0067 -23.6803 -0.0647 -1.6407 4.5138 -2.1622 1.7661 10.7207 -0.3147 2.0200 0.0137 0.5701 1.0337 -6.0688 -11.2368 -2.2327 -22.0894 7.0792 -2.2848 30.5914 4.3353 -1.6353 14.4368 -0.0000 -0.0000 0.0000 -80.8441 0.7236 14.6486 21.4130 -32.3072 -6.2692 -0.0000 -0.0000 1.8528 24.6753 21.7780 9.6732 -7.1250 0.0000 -0.0000 -4.3287 53.6620 -0.9233 -0.0000 -0.0000 0.0000 90.8731 -3.7962 6.7007 -18.6997 29.0438 -4.8842 0.0000 0.0000 6.0548 -12.5380 8.3855 -1.8576 7.1250 -0.0000 -0.0000 10.3428 -21.4454 5.9408
8.1804 17.6039 8.6101 177.3620 -33.7258 -176.7870 0.0000 0.0000 0.0000 -21.2323 -1.9274 -6.4640 2.4225 9.6956 27.9964 1.0813 -3.3869 -18.8158 0.1341 -2.3605 -6.5029 0.0000 0.0000 0.0000 23.2094 -1.9597 -11.1739 -4.0505 -12.2273 36.5408 -1.7500 4.2385 -24.0174 -0.0252 -1.0245 2.8161 -1.7722 1.7953 10.8385 -0.4199 2.0974 -0.0059 0.2244 1.0585 -6.1393 -11.1544 -2.2427 -22.0179 6.8562 -2.2570 30.5059 4.2282 -1.6421 14.3768 0.0000 0.0000 0.0000 -80.8845 0.9215 14.7009 21.4884 -32.3940 -6.3096 -0.0000 -0.0000 2.2704 24.1493 21.7522 9.4339 -7.1250 0.0000 -0.0000 -4.8646 53.5333 -1.0227 0.0000 0.0000 0.0000 90.8986 -3.9255 6.7522 -18.7505 29.1075 -4.9089 0.0000 0.0000 6.1588 -12.2388 8.0802 -1.7464 7.1250 -0.0000 -0.0000 10.5734 -21.7638 5.9999
8.1416 17.5981 8.6411 177.2970 -33.2090 -176.8670 0.0000 0.0000 0.0000 -21.3918 -1.5764 -6.8155 2.5372 9.9052 28.6702 1.0882 -3.8100 -18.8150 0.1214 -2.2458 -6.1854 0.0000 0.0000 0.0000 22.7497 -1.7171 -10.6827 -3.9542 -12.0992 36.0837 -1.7659 5.3456 -23.9815 -0.0418 -1.3197 3.6290 -1.4362 1.8030 11.0531 -0.5339 2.1372 -0.0478 -0.0980 1.0659 -6.2881 -11.1716 -2.2334 -22.1056 6.7945 -2.2157 30.6068 4.2168 -1.6404 14.4357 0.0000 0.0000 0.0000 -80.9435 1.0937 14.7007 21.4885 -32.3941 -6.3096 -0.0000 -0.0000 2.5539 23.8766 21.4438 9.1924 -7.1250 0.0000 -0.0000 -5.0499 53.1553 -1.0151 0.0000 0.0000 0.0000 90.8425 -4.0518 6.9536 -18.6949 29.0379 -4.8819 0.0000 0.0000 6.1807 -12.1976 8.1895 -1.7637 7.1250 -0.0000 -0.0000 10.5973 -21.6554 6.0405
8.0997 17.5919 8.6715 177.2040 -32.7390 -176.9440 0.0000 0.0000 0.0000 -21.5487 -1.2819 -7.1279 2.6634 10.1292 29.3960 1.0886 -4.3055 -18.7560 0.1601 -2.5779 -7.1058 0.0000 0.0000 0.0000 22.2247 -1.6067 -10.1878 -3.8621 -11.9746 35.6422 -1.7482 6.7267 -23.7383 -0.0497 -1.4382 3.9555 -1.1704 1.7999 11.2494 -0.5932 2.1590 -0.0652 -0.3200 1.0667 -6.4048 -11.2931 -2.2242 -22.2595 6.8414 -2.1642 30.7456 4.2732 -1.6322 14.5276 0.0000 0.0000 0.0000 -81.1097 1.1957 14.7631 21.3872 -32.2776 -6.2554 -0.0000 -0.0000 2.8291 24.0429 21.2109 9.1690 -7.1250 0.0000 -0.0000 -4.8091 52.9402 -0.9412 0.0000 0.0000 0.0000 90.6233 -4.1123 7.2675 -18.6150 28.9374 -4.8431 0.0000 0.0000 6.2139 -12.4407 8.2816 -1.8200 7.1250 -0.0000 -0.0000 10.4178 -21.5537 5.9592
